<?xml version="1.0" encoding="UTF-8"?>
<svg id="Layer_1" data-name="Layer 1" xmlns="http://www.w3.org/2000/svg" viewBox="0 0 500 488.01">
  <defs>
    <style>
      .cls-1 {
        fill: #9898fe;
      }

      .cls-2 {
        fill: #00005b;
      }
    </style>
  </defs>
  <path class="cls-2" d="M423,0c39.74,1.56,75.3,37.2,77,77v334c-2.41,41.37-40.36,77.55-82,77H82c-41.41.22-80.69-35.85-82-78V77C1.2,38.56,38,.08,77,0h346Z"/>
  <path class="cls-1" d="M344.5,178c4.59,1.31,4.38,16.94,6,21,12.08-13.1,29.77-23.87,47.96-25.03,2.5-.16,8.54-.96,8.54,2.53v41c0,.33-1.32,1.52-1,2.5h-14.5c-2.79,0-11.65,2.23-14.93,3.07-8.31,2.15-18.08,5.54-23.37,12.63l-.7,107.3c-.93,1.67-2.26,1.82-3.96,2.04-8.58,1.1-28.04.63-37.09,0-1.69-.12-3.3-.32-4.87-.93l-2.58-166.11h40.5Z"/>
  <g>
    <path class="cls-1" d="M164,274v68.5c0,.11-1.39,1.5-1.5,1.5h-43.5V125c4.48-.23,9.06.3,13.54.04,30.97-1.78,75.52-5.12,103.82,8.1,36.22,16.93,48.65,59.9,34.41,96.12-16.65,42.33-66.81,48.63-106.76,44.74Z"/>
    <path class="cls-2" d="M164,235v-70h34.5c2.47,0,14.54,4.34,17.21,5.79,15,8.18,18.74,29.68,12.17,44.58-9.05,20.52-44.81,22.23-63.87,19.63Z"/>
  </g>
</svg>