<?xml version="1.0" encoding="UTF-8"?>
<svg id="Layer_1" data-name="Layer 1" xmlns="http://www.w3.org/2000/svg" viewBox="0 0 768.33 768">
  <defs>
    <style>
      .cls-1 {
        fill: #7a26e6;
      }

      .cls-2 {
        fill: #fdfcfe;
      }
    </style>
  </defs>
  <path class="cls-1" d="M419.33,0c13.61,2.54,27.43,3.64,41.19,6.31,155.12,30.15,279.04,159.45,303.52,315.48l4.29,34.21v54l-3.14,27.36c-23.88,170.25-161.89,306.27-332.49,327.51l-36.37,3.13h-24l-36.37-3.13C165.56,743.74,27.15,607.46,3.47,437.36l-3.14-27.36c.77-17.75-1.03-36.35,0-54C10.97,174.3,165.65,13.19,348.33,0h71ZM691.34,385.65c0-168.4-136.52-304.92-304.92-304.92S81.5,217.25,81.5,385.65s136.52,304.92,304.92,304.92,304.92-136.52,304.92-304.92Z"/>
  <g>
    <path class="cls-2" d="M691.34,385.65c0,168.4-136.52,304.92-304.92,304.92S81.5,554.06,81.5,385.65,218.02,80.73,386.42,80.73s304.92,136.52,304.92,304.92ZM220.63,169.29c-1.32,1.69-4.62,24.29-5.13,28.38-1.4,11.1-4.5,21.21,10.34,22.32,15.85,1.19,38.48-2.32,54.95-3.03,75.96-3.28,149.12-2.87,225.08,0,12.29.46,31.42,3.67,43,2.09,17.57-2.39,8.09-36.16,6.26-47.35-94.92-77.51-238.19-77.55-334.51-2.41ZM183.32,206.01c-1.47-1.66-9.43,8.92-10.39,10.1-4.56,5.57-26.51,36.36-26.53,41.4-.02,4.18,5.73,7.08,9.4,7.52,3.19.38,23.45.33,24.38-1.17l3.13-57.85ZM594.47,263.86c.95,1.52,22.12,1.57,25.3,1.08,11.03-1.71,7.11-8.06,3.74-14.61-5.94-11.53-16.74-26.9-25.2-36.8-.85-1-6.03-7.61-6.97-6.52l3.13,56.85ZM218.06,260.23c-4.81,1.56-8.42,5.05-10.26,9.74l-.52,227.58c.17,6.06,4.67,10.84,10.02,12.98l339.57.51c6.38.11,13.34-6.09,13.51-12.49v-226.09c-.17-6.4-7.12-12.6-13.51-12.49l-338.81.27ZM135.04,301.21c-3.19.72-9.35,7.37-10.45,10.55-2.21,6.44-7.97,39.72-7.02,45.5.62,3.8,2.22,7.25,6.21,7.79,8.79,1.18,32.89.85,42.1,0,4.55-.42,9.86-3.66,10.51-8.49,1.16-8.68,1.05-37.26-.03-46.08-.43-3.49-2.62-9.08-6.47-9.53-5.56-.65-30.04-.82-34.85.27ZM603.99,301.16c-.98.33-3.53,4.1-3.88,5.12-1.52,4.36-1.65,45.08-.83,51.27.54,4.06,4.76,6.7,8.51,7.49l46.55-.53c1.59-1.99,2.77-4.42,3.02-7,.73-7.34-6.65-45.45-10.58-51.46-1.45-2.22-4.36-4.57-7.01-4.99-10.45-1.66-24.88.97-35.78.11ZM122.02,402.19c-4,2.41-4.85,7.99-4.71,12.27.26,7.59,4.72,32.75,7.1,39.94,1.58,4.76,7.41,10.75,12.47,11.53,3.5.54,33.93.5,35.45-.42,1.33-.81,3.78-7.09,4.01-8.99,1.08-8.81,1.18-37.4.03-46.08-.46-3.42-4.4-6.97-7.57-8.43l-46.78.17ZM606.03,402.2c-2.75,2.21-6.27,4.61-6.76,8.24-1.16,8.67-1.05,37.27.03,46.08.43,3.49,2.62,9.08,6.47,9.53,7.01.82,23.95.68,31.11,0,5.13-.49,10.36-3.65,12.51-8.49,2.69-6.03,5.58-23.16,6.66-30.34.92-6.1,4.81-24.24-4.17-25.28-14.01-1.63-31.46,1.16-45.85.26ZM183.32,560.99l-3.43-58.06c-.71-1.03-1.94-.85-3.02-.98-4.1-.5-22.15-.45-25.29.81-12.98,5.21,2.38,24.89,6.93,31.55,3.62,5.3,8.7,12.34,12.84,17.16,3.36,3.92,6.7,8.07,11.97,9.52ZM622.83,502c-7.05-1.61-19.77,1.19-27.5,0l-3.49,59.01c1.92-.51,4.55-1.71,6.01-2.99,5.79-5.08,26.81-36.89,29.7-44.29,1.66-4.27-.37-10.74-4.72-11.73ZM224.07,548.16c-6.06,2.92-10.38,8.4-10.74,15.34l4.2,34.8c92.42,78.95,240.37,79.48,334.68,3.08l7.21-42.88c.09-5.24-4.49-9.91-9.56-10.52-8.55-1.01-24.66.58-34.06.98-63.31,2.67-126.35,7.5-190,4.08l-101.72-4.88Z"/>
    <path class="cls-1" d="M218.06,260.23l338.81-.27c6.38-.11,13.34,6.09,13.51,12.49v226.09c-.17,6.4-7.12,12.6-13.51,12.49l-339.57-.51c-5.35-2.13-9.85-6.92-10.02-12.98l.52-227.58c1.84-4.7,5.45-8.18,10.26-9.74Z"/>
    <path class="cls-1" d="M224.07,548.16l101.72,4.88c63.65,3.41,126.69-1.41,190-4.08,9.4-.4,25.52-1.99,34.06-.98,5.08.6,9.65,5.27,9.56,10.52l-7.21,42.88c-94.31,76.4-242.26,75.87-334.68-3.08l-4.2-34.8c.36-6.94,4.67-12.41,10.74-15.34Z"/>
    <path class="cls-1" d="M220.63,169.29c96.32-75.14,239.59-75.11,334.51,2.41,1.82,11.2,11.3,44.96-6.26,47.35-11.58,1.58-30.71-1.62-43-2.09-75.96-2.87-149.12-3.28-225.08,0-16.46.71-39.1,4.22-54.95,3.03-14.85-1.12-11.74-11.22-10.34-22.32.51-4.09,3.81-26.69,5.13-28.38Z"/>
    <path class="cls-1" d="M135.04,301.21c4.81-1.09,29.29-.92,34.85-.27,3.85.45,6.04,6.05,6.47,9.53,1.08,8.81,1.19,37.4.03,46.08-.65,4.84-5.95,8.07-10.51,8.49-9.2.85-33.31,1.18-42.1,0-3.99-.54-5.58-3.99-6.21-7.79-.95-5.77,4.81-39.06,7.02-45.5,1.09-3.18,7.26-9.83,10.45-10.55Z"/>
    <path class="cls-1" d="M122.02,402.19l46.78-.17c3.17,1.45,7.12,5,7.57,8.43,1.16,8.67,1.05,37.27-.03,46.08-.23,1.9-2.68,8.18-4.01,8.99-1.51.92-31.95.96-35.45.42-5.06-.78-10.89-6.77-12.47-11.53-2.39-7.19-6.85-32.35-7.1-39.94-.15-4.28.71-9.86,4.71-12.27Z"/>
    <path class="cls-1" d="M606.03,402.2c14.39.9,31.84-1.89,45.85-.26,8.98,1.05,5.09,19.19,4.17,25.28-1.08,7.18-3.97,24.31-6.66,30.34-2.15,4.84-7.38,7.99-12.51,8.49-7.16.69-24.1.82-31.11,0-3.85-.45-6.04-6.05-6.47-9.53-1.08-8.81-1.19-37.4-.03-46.08.48-3.63,4.01-6.04,6.76-8.24Z"/>
    <path class="cls-1" d="M603.99,301.16c10.9.86,25.33-1.77,35.78-.11,2.65.42,5.56,2.78,7.01,4.99,3.93,6.01,11.31,44.13,10.58,51.46-.25,2.57-1.43,5-3.02,7l-46.55.53c-3.74-.8-7.97-3.44-8.51-7.49-.82-6.19-.69-46.91.83-51.27.35-1.01,2.91-4.78,3.88-5.12Z"/>
    <path class="cls-1" d="M183.32,560.99c-5.27-1.46-8.61-5.61-11.97-9.52-4.14-4.82-9.22-11.85-12.84-17.16-4.54-6.66-19.9-26.35-6.93-31.55,3.13-1.26,21.19-1.31,25.29-.81,1.07.13,2.3-.04,3.02.98l3.43,58.06Z"/>
    <path class="cls-1" d="M622.83,502c4.35.99,6.38,7.46,4.72,11.73-2.88,7.4-23.91,39.21-29.7,44.29-1.46,1.28-4.09,2.48-6.01,2.99l3.49-59.01c7.73,1.19,20.45-1.61,27.5,0Z"/>
    <path class="cls-1" d="M183.32,206.01l-3.13,57.85c-.94,1.5-21.2,1.55-24.38,1.17-3.67-.44-9.43-3.34-9.4-7.52.03-5.03,21.98-35.82,26.53-41.4.97-1.18,8.92-11.76,10.39-10.1Z"/>
    <path class="cls-1" d="M594.47,263.86l-3.13-56.85c.94-1.09,6.12,5.52,6.97,6.52,8.45,9.91,19.26,25.27,25.2,36.8,3.37,6.55,7.29,12.9-3.74,14.61-3.17.49-24.35.44-25.3-1.08Z"/>
  </g>
</svg>